<?xml version="1.0" encoding="utf-8"?>
<!-- Generator: Adobe Illustrator 16.0.0, SVG Export Plug-In . SVG Version: 6.00 Build 0)  -->
<!DOCTYPE svg PUBLIC "-//W3C//DTD SVG 1.1//EN" "http://www.w3.org/Graphics/SVG/1.1/DTD/svg11.dtd">
<svg version="1.1" id="Layer_1" xmlns="http://www.w3.org/2000/svg" xmlns:xlink="http://www.w3.org/1999/xlink" x="0px" y="0px"
	 width="760.6px" height="720px" viewBox="0 0 760.6 720" style="enable-background:new 0 0 760.6 720;" xml:space="preserve">
<style type="text/css">
<![CDATA[
	.st0{fill:#808285;}
	.st1{fill:#B0AFB0;}
	.st2{opacity:0.36;}
	.st3{fill:#ED1C24;}
	.st4{fill:#58595B;}
	.st5{fill:url(#SVGID_1_);}
	.st6{fill:#FBB040;}
	.st7{fill:#FDC012;}
	.st8{fill:#FFFFFF;}
	.st9{fill:#CCCCCC;}
	.st10{fill:#39B54A;}
	.st11{fill:#414042;}
]]>
</style>
<g>
	<linearGradient id="SVGID_1_" gradientUnits="userSpaceOnUse" x1="380.2852" y1="621.7705" x2="380.2852" y2="472.1104">
		<stop  offset="0" style="stop-color:#BFBFBF"/>
		<stop  offset="1" style="stop-color:#636363"/>
	</linearGradient>
	<path class="st5" d="M454.2,603c-22.5,0-26.4-112-26.4-112h-47.5h-47.5c0,0-3.9,112-26.4,112c-22.5,0-25.2,10.3-25.2,10.3h99.1
		h99.1C479.4,613.2,476.7,603,454.2,603z"/>
	<path class="st9" d="M31.1,503c0,9.9,8.1,18,18,18h662.3c9.9,0,18-8.1,18-18V445H31.1V503z"/>
	<path d="M711.4,77.7H49.1c-9.9,0-18,8.1-18,18V445h698.3V95.7C729.4,85.8,721.3,77.7,711.4,77.7z"/>
	<rect x="52.5" y="98.8" class="st0" width="655.6" height="346.2"/>
	<rect x="97.8" y="174" class="st8" width="565" height="271"/>
	<g>
		<rect x="136.7" y="296" class="st1" width="487.2" height="6"/>
		<rect x="136.7" y="414.6" class="st1" width="487.2" height="6"/>
		<rect x="136.7" y="320" class="st1" width="487.2" height="6"/>
		<rect x="136.7" y="344" class="st1" width="487.2" height="6"/>
		<rect x="136.7" y="368" class="st1" width="487.2" height="6"/>
		<rect x="136.7" y="392" class="st1" width="487.2" height="6"/>
	</g>
	<g>
		<path class="st4" d="M173.1,254.4c0,4.3-1.5,8-4.5,11c-3,3-6.6,4.6-10.9,4.6h-15.4v-65h15.4c4.3,0,7.9,1.5,10.9,4.6
			c3,3,4.5,6.7,4.5,10.9V254.4z M152.1,260.3h5.9c1.6,0,2.9-0.6,3.9-1.7c1.1-1.1,1.6-2.4,1.6-4v-34c0-1.6-0.5-2.9-1.6-4
			c-1.1-1.1-2.4-1.7-3.9-1.7h-5.9V260.3z"/>
		<path class="st4" d="M197.2,205c5.5,0,9.5,1.5,12,4.5c2.2,2.6,3.4,6.3,3.4,11v9.4c0,4.6-1.7,8.5-5.2,11.7l7.3,28.4H204l-5.9-24.5
			c-0.3,0-0.6,0-0.9,0h-5.7V270h-9.8v-65H197.2z M203.1,220.7c0-3.8-1.9-5.7-5.6-5.7h-5.9v20.8h5.9c1.6,0,2.9-0.6,4-1.7
			c1.1-1.1,1.6-2.4,1.6-4V220.7z"/>
		<path class="st4" d="M232.8,270H223v-65h9.8V270z"/>
		<path class="st4" d="M252.6,270L241,205h10.3l8.2,50.6l8.2-50.6h10.3l-11.8,65H252.6z"/>
		<path class="st4" d="M295.9,270h-9.8v-65h9.8V270z"/>
		<path class="st4" d="M315.7,205l13,43.7V205h9.8v65h-10.5l-13.5-41.6V270h-9.8v-65H315.7z"/>
		<path class="st4" d="M362.6,270.8c-4.3,0-8-1.5-11-4.6c-3-3-4.5-6.7-4.5-10.9v-35.5c0-4.3,1.5-8,4.6-11c3-3,6.7-4.5,11-4.5
			c4.3,0,8,1.5,11,4.6c3,3,4.5,6.7,4.5,11v7.4H368v-7.6c0-1.6-0.6-2.9-1.7-4c-1.1-1.1-2.4-1.7-4-1.7c-1.6,0-2.9,0.6-4,1.7
			c-1.1,1.1-1.6,2.4-1.6,4v35.6c0,1.6,0.5,2.9,1.6,4c1.1,1.1,2.4,1.6,4,1.6c1.6,0,2.9-0.5,4-1.6c1.1-1.1,1.7-2.4,1.7-4v-12.8h-5.4
			v-9.9h15.6v22.7c0,4.3-1.5,8-4.6,11C370.5,269.3,366.9,270.8,362.6,270.8z"/>
		<path class="st4" d="M407.1,205c5.5,0,9.5,1.5,12,4.5c2.2,2.6,3.4,6.3,3.4,11v9.4c0,4.6-1.7,8.5-5.2,11.7l7.3,28.4h-10.6
			l-5.9-24.5c-0.3,0-0.6,0-0.9,0h-5.7V270h-9.8v-65H407.1z M412.9,220.7c0-3.8-1.9-5.7-5.6-5.7h-5.9v20.8h5.9c1.6,0,2.9-0.6,4-1.7
			c1.1-1.1,1.6-2.4,1.6-4V220.7z"/>
		<path class="st4" d="M432.9,270v-65h27.9v9.9h-18.1v17.7h13.2v9.9h-13.2v17.7h18.1v9.9H432.9z"/>
		<path class="st4" d="M483.1,270.8c-4.3,0-8-1.5-11-4.5c-3-3-4.5-6.7-4.5-11v-35.5c0-4.3,1.5-8,4.6-11c3-3,6.7-4.5,11-4.5
			c4.3,0,8,1.5,11,4.6c3,3,4.5,6.7,4.5,11v7.4h-10.2v-7.6c0-1.6-0.6-2.9-1.7-4c-1.1-1.1-2.4-1.7-4-1.7c-1.6,0-2.9,0.6-4,1.7
			c-1.1,1.1-1.6,2.4-1.6,4v35.6c0,1.6,0.5,2.9,1.6,4s2.4,1.6,4,1.6c1.6,0,2.9-0.5,4-1.6c1.1-1.1,1.7-2.4,1.7-4v-9h10.2v9.1
			c0,4.3-1.5,8-4.6,11C491,269.3,487.3,270.8,483.1,270.8z"/>
		<path class="st4" d="M522,204.2c4.3,0,8,1.5,11,4.6c3,3,4.5,6.7,4.5,11v35.5c0,4.3-1.5,8-4.6,11c-3,3-6.7,4.5-11,4.5
			c-4.3,0-8-1.5-11-4.6c-3-3-4.5-6.7-4.5-11v-35.5c0-4.3,1.5-8,4.6-11C514.1,205.7,517.7,204.2,522,204.2z M527.3,219.6
			c0-1.6-0.5-2.9-1.6-4s-2.4-1.6-4-1.6c-1.6,0-2.9,0.5-4,1.6c-1.1,1.1-1.7,2.4-1.7,4v35.6c0,1.6,0.6,2.9,1.7,4
			c1.1,1.1,2.4,1.6,4,1.6c1.6,0,2.9-0.5,4-1.6s1.6-2.4,1.6-4V219.6z"/>
		<path class="st4" d="M561.6,205c5.5,0,9.5,1.5,12,4.5c2.2,2.6,3.4,6.3,3.4,11v9.4c0,4.6-1.7,8.5-5.2,11.7L579,270h-10.6l-5.9-24.5
			c-0.3,0-0.6,0-0.9,0H556V270h-9.8v-65H561.6z M567.5,220.7c0-3.8-1.9-5.7-5.6-5.7H556v20.8h5.9c1.6,0,2.9-0.6,4-1.7
			c1.1-1.1,1.6-2.4,1.6-4V220.7z"/>
		<path class="st4" d="M618.2,254.4c0,4.3-1.5,8-4.5,11c-3,3-6.6,4.6-10.9,4.6h-15.4v-65h15.4c4.3,0,7.9,1.5,10.9,4.6
			c3,3,4.5,6.7,4.5,10.9V254.4z M597.2,260.3h5.9c1.6,0,2.9-0.6,3.9-1.7c1.1-1.1,1.6-2.4,1.6-4v-34c0-1.6-0.5-2.9-1.6-4
			c-1.1-1.1-2.4-1.7-3.9-1.7h-5.9V260.3z"/>
	</g>
	<rect x="52.5" y="98.8" class="st11" width="655.6" height="24.8"/>
	<rect x="52.5" y="123.6" class="st7" width="655.6" height="32.6"/>
	<rect x="120.4" y="132.6" class="st8" width="557.5" height="13.9"/>
	<g>
		<ellipse class="st3" cx="65.8" cy="111.2" rx="4.1" ry="4.1"/>
		<ellipse class="st6" cx="77.9" cy="111.2" rx="4.1" ry="4.1"/>
		<ellipse class="st10" cx="90.1" cy="111.2" rx="4.1" ry="4.1"/>
	</g>
	<g class="st2">
		<polygon class="st8" points="94.7,132.8 94.7,146.2 106.6,139.5 		"/>
		<polygon class="st8" points="81.2,146.2 81.2,132.8 69.3,139.5 		"/>
	</g>
</g>
</svg>
